<svg width="32" height="33" viewBox="0 0 32 33" fill="none" xmlns="http://www.w3.org/2000/svg">
<mask id="mask0_29_266" style="mask-type:luminance" maskUnits="userSpaceOnUse" x="0" y="0" width="32" height="33">
<path d="M32 0.199951H0V32.2H32V0.199951Z" fill="white"/>
</mask>
<g mask="url(#mask0_29_266)">
<mask id="mask1_29_266" style="mask-type:luminance" maskUnits="userSpaceOnUse" x="0" y="0" width="32" height="33">
<path d="M32 0.199951H0V32.2H32V0.199951Z" fill="white"/>
</mask>
<g mask="url(#mask1_29_266)">
<mask id="mask2_29_266" style="mask-type:luminance" maskUnits="userSpaceOnUse" x="0" y="0" width="32" height="33">
<path d="M32 0.199951H0V32.2H32V0.199951Z" fill="white"/>
</mask>
<g mask="url(#mask2_29_266)">
<path d="M16.0406 32.2C15.536 32.2 15.1094 31.8345 14.9872 31.3449C14.5976 29.7845 13.8519 28.125 12.75 26.3667C11.4445 24.2555 9.58336 22.2973 7.16665 20.4917C5.06478 18.903 2.96289 17.8197 0.86102 17.2418C0.363208 17.1049 0 16.6635 0 16.1472C0 15.641 0.349237 15.2047 0.835954 15.0658C2.89672 14.4773 4.88195 13.5221 6.79167 12.2C8.9861 10.6722 10.8194 8.83882 12.2917 6.69995C13.5941 4.79459 14.4881 2.91016 14.9738 1.04669C15.101 0.558503 15.5308 0.199951 16.0353 0.199951C16.5454 0.199951 16.9782 0.566444 17.1024 1.06128C17.3827 2.17841 17.8208 3.32187 18.4166 4.49162C19.1667 5.93607 20.1249 7.32493 21.2917 8.65826C22.486 9.96386 23.8195 11.1444 25.2917 12.2C27.2155 13.5637 29.1712 14.5218 31.159 15.0742C31.6467 15.2098 32 15.6439 32 16.15C32 16.6636 31.636 17.1014 31.1406 17.2373C29.8806 17.5827 28.5837 18.1398 27.2501 18.9083C25.6389 19.8527 24.1389 20.9777 22.7499 22.2833C21.3611 23.5611 20.2222 24.9083 19.3333 26.3249C18.2293 28.0868 17.4827 29.7592 17.0939 31.3422C16.9733 31.8333 16.5461 32.2 16.0406 32.2Z" fill="white"/>
</g>
</g>
</g>
</svg>
