<?xml version="1.0" standalone="no"?>
<!DOCTYPE svg PUBLIC "-//W3C//DTD SVG 20010904//EN"
 "http://www.w3.org/TR/2001/REC-SVG-20010904/DTD/svg10.dtd">
<svg version="1.0" xmlns="http://www.w3.org/2000/svg"
 width="735.000000pt" height="735.000000pt" viewBox="0 0 735.000000 735.000000"
 preserveAspectRatio="xMidYMid meet">

<g transform="translate(0.000000,735.000000) scale(0.100000,-0.100000)"
fill="#000000" stroke="none">
<path d="M2066 6924 c-67 -21 -147 -101 -170 -170 -32 -98 -16 -218 39 -291
35 -44 105 -89 170 -108 l50 -15 3 -57 c5 -95 48 -202 110 -277 30 -37 26 -61
-27 -171 -66 -135 -121 -183 -346 -305 -185 -100 -298 -197 -358 -307 -88
-164 -97 -396 -28 -742 55 -273 64 -348 57 -446 -12 -158 -55 -318 -158 -585
-24 -63 -55 -153 -68 -200 -13 -47 -27 -89 -32 -94 -17 -20 -142 285 -197 479
-62 223 -74 314 -80 630 l-6 290 -15 -95 c-10 -65 -15 -168 -15 -325 1 -241
-5 -243 -24 -9 -22 260 16 592 95 849 106 344 289 673 517 928 38 43 67 80 65
83 -8 8 -239 -236 -309 -326 -228 -293 -373 -614 -424 -940 -9 -58 -20 -121
-25 -140 l-8 -35 -1 40 c-1 60 25 218 53 327 104 388 302 767 564 1078 l55 65
-73 -75 c-311 -323 -549 -793 -634 -1255 -58 -313 -54 -694 10 -1005 110 -531
425 -1077 819 -1421 149 -129 232 -192 367 -277 108 -67 318 -172 333 -165 8
3 34 37 58 77 50 83 58 99 49 112 -4 5 -63 37 -132 71 -232 115 -438 270 -644
484 -156 161 -356 428 -356 474 0 26 54 180 126 357 100 247 164 488 164 615
0 52 12 93 29 93 4 0 18 -26 31 -57 38 -96 138 -288 189 -365 55 -82 110 -141
155 -166 52 -28 154 -21 271 18 109 37 312 136 407 200 34 22 62 39 64 38 1
-2 -13 -79 -31 -173 -19 -93 -44 -255 -57 -358 -12 -103 -25 -192 -28 -197
-14 -23 -277 -60 -427 -60 -89 0 -283 20 -382 40 -142 27 -167 -3 -33 -43 156
-46 284 -60 492 -54 129 4 211 12 270 26 l85 19 55 -23 c30 -13 85 -37 121
-53 l66 -30 -18 -103 c-18 -108 -46 -202 -58 -197 -4 2 -81 44 -171 95 -167
93 -255 133 -290 133 -39 0 -19 -29 41 -60 34 -17 87 -48 118 -69 31 -20 106
-68 168 -105 l111 -68 -13 -39 c-8 -21 -21 -80 -30 -131 -32 -187 -46 -264
-56 -293 -5 -17 -41 -62 -80 -100 -41 -41 -83 -94 -100 -127 -52 -102 -60
-248 -22 -378 9 -30 16 -74 14 -97 -4 -56 23 -147 61 -206 32 -51 104 -110
173 -145 99 -49 330 -109 488 -128 31 -4 57 -10 57 -13 0 -4 -13 -14 -29 -24
-16 -9 -43 -33 -60 -52 -59 -68 -34 -160 50 -183 88 -23 135 -16 349 58 318
109 342 114 562 115 158 0 190 2 203 16 14 14 23 14 71 3 31 -7 136 -20 234
-30 188 -17 220 -16 535 27 98 13 300 5 375 -16 30 -8 76 -15 103 -15 42 0 54
5 83 34 53 53 42 113 -32 174 l-36 30 68 16 c213 48 427 144 515 230 116 114
164 272 128 425 -5 24 -8 44 -7 45 2 1 44 -1 93 -4 88 -5 145 3 145 21 0 5 11
9 25 9 27 0 65 31 65 53 0 8 9 22 19 31 39 36 35 82 -12 134 -15 16 -20 33
-18 62 6 92 -94 179 -269 233 -52 15 -99 20 -232 21 l-166 3 -57 34 c-67 40
-225 169 -343 280 -45 43 -120 110 -166 150 -47 39 -89 83 -95 98 -13 32 -38
159 -47 233 -6 54 -6 55 20 62 20 5 26 12 26 35 0 26 -94 551 -121 676 -49
229 -147 380 -298 458 -94 49 -220 94 -388 137 -40 10 -43 13 -43 44 0 31 3
34 37 41 88 16 120 54 179 208 65 169 93 301 96 444 4 219 1 327 -9 351 -6 15
-5 42 1 72 13 67 -7 133 -56 182 -20 20 -49 40 -64 44 -14 4 -44 26 -65 49
-50 54 -136 100 -235 125 -128 33 -265 22 -378 -29 -91 -41 -197 -144 -241
-235 -48 -97 -54 -140 -51 -377 2 -203 2 -206 30 -263 20 -40 42 -68 72 -89
l44 -31 0 -85 c0 -94 -16 -203 -35 -241 -7 -14 -27 -38 -44 -54 l-30 -29 -61
13 c-78 17 -224 8 -310 -19 -35 -11 -65 -19 -66 -18 -2 1 -26 79 -54 172 -111
366 -122 392 -204 501 -57 77 -121 125 -261 198 -60 32 -112 60 -114 62 -3 3
19 64 23 64 0 0 30 -9 64 -20 85 -27 140 -26 183 3 32 22 85 106 142 229 14
31 28 48 40 48 33 0 74 29 87 60 10 25 10 48 1 113 -17 122 -14 147 18 194 15
23 31 61 35 84 4 22 13 54 21 70 22 42 19 147 -6 215 -23 62 -71 114 -211 233
-126 107 -229 150 -383 158 -74 4 -116 1 -162 -10 -69 -18 -172 -67 -192 -91
-20 -24 -33 -20 -65 20 -58 74 -164 100 -270 68z m197 -269 c-14 -26 -41 -82
-60 -124 -39 -89 -43 -80 -9 19 23 64 83 167 92 157 2 -2 -8 -26 -23 -52z
m939 -34 c13 -11 37 -45 53 -78 28 -53 30 -66 29 -159 0 -95 -3 -106 -33 -165
-35 -68 -40 -112 -25 -257 4 -43 3 -67 -6 -77 -14 -17 -57 -20 -94 -6 -18 8
-28 6 -37 -5 -11 -13 -9 -19 11 -35 21 -15 23 -21 14 -36 -9 -15 -25 -18 -88
-18 -43 0 -77 -4 -77 -10 -3 -13 60 -45 89 -45 12 0 22 -2 22 -4 0 -22 -64
-137 -81 -146 -13 -7 -46 -10 -80 -8 -76 6 -204 69 -277 138 -56 53 -82 63
-82 30 0 -20 78 -106 132 -145 l28 -20 -35 -98 c-35 -100 -43 -147 -25 -147 5
0 21 23 36 51 26 52 26 52 46 32 25 -26 35 -145 18 -226 -15 -74 -55 -123 -91
-114 -64 16 -275 198 -451 389 l-97 105 46 34 c80 60 154 180 208 337 23 66
32 81 44 76 26 -12 74 -10 78 3 2 7 -13 21 -34 31 -66 35 -108 96 -119 174
-13 91 41 188 103 188 39 0 91 -46 107 -95 16 -46 53 -62 63 -26 4 14 13 21
31 21 42 0 154 31 207 57 79 40 163 105 250 192 44 45 82 81 86 81 3 0 17 -9
31 -19z m1543 -918 c25 -37 67 -161 80 -235 l6 -38 -36 0 c-43 0 -88 -21 -109
-52 -23 -32 -20 -131 6 -255 26 -125 24 -129 -68 -126 -57 1 -64 -1 -64 -18 0
-40 135 -46 176 -8 29 27 30 55 9 166 -19 98 -19 96 4 83 11 -5 28 -10 39 -10
16 0 20 -9 25 -55 7 -65 -10 -151 -58 -300 -45 -139 -90 -224 -132 -248 -95
-55 -299 7 -438 135 -76 69 -111 53 -51 -24 52 -66 208 -157 308 -177 l56 -12
-5 -121 c-5 -101 -4 -120 8 -116 8 2 19 26 26 52 7 27 14 51 17 54 3 3 20 1
38 -5 l33 -9 -2 -69 c-4 -98 -26 -156 -78 -204 -95 -87 -230 -66 -431 70 -116
78 -183 132 -183 149 -1 9 -8 26 -17 39 -12 17 -13 26 -5 34 19 19 13 74 -13
103 l-23 28 28 23 c15 13 41 50 56 81 27 54 28 63 28 200 0 140 0 142 22 142
12 0 25 5 28 10 11 17 -15 40 -45 40 -64 0 -131 75 -150 167 -16 76 -5 139 30
175 48 48 90 37 126 -33 29 -59 48 -62 99 -17 59 51 75 94 75 196 0 71 4 94
18 111 21 26 33 27 142 11 141 -20 294 10 355 69 17 16 33 29 37 30 4 1 19
-16 33 -36z m-2558 -314 c168 -172 336 -319 406 -353 72 -36 101 -34 147 12
52 52 74 127 68 239 -5 96 -12 93 92 36 162 -91 236 -213 340 -570 22 -76 46
-158 54 -183 l14 -46 -77 -34 c-42 -19 -98 -47 -124 -62 -26 -15 -49 -28 -51
-28 -1 0 0 51 2 113 5 152 -27 347 -58 347 -12 0 -11 25 -13 -240 -3 -295 1
-287 -152 -351 -148 -62 -330 -126 -440 -154 l-90 -23 -32 97 c-35 106 -38
128 -22 164 13 28 -4 129 -56 337 -65 261 -102 352 -133 331 -11 -6 -2 -52 42
-222 30 -118 61 -251 69 -296 l14 -82 -50 -6 c-106 -15 -308 -87 -435 -155
-49 -27 -74 -36 -77 -27 -3 11 -66 356 -80 439 -3 21 -6 102 -6 180 -1 325 72
440 396 621 55 31 103 56 107 57 4 0 69 -64 145 -141z m2628 -75 l-6 -54 -45
2 c-44 1 -44 1 -44 38 0 20 6 44 13 54 14 19 80 37 86 23 2 -4 0 -33 -4 -63z
m-1064 -785 c50 -17 99 -57 99 -80 l0 -21 -32 21 c-65 41 -134 71 -165 71 -46
0 -41 -16 12 -39 85 -38 195 -126 195 -157 0 -23 -20 -16 -66 25 -91 80 -243
142 -297 122 -39 -15 -33 -28 17 -33 89 -10 292 -134 272 -167 -8 -13 -28 -5
-94 37 -126 80 -219 104 -312 82 -77 -18 -64 -35 28 -36 81 0 151 -18 211 -55
55 -34 20 -42 -75 -17 -107 27 -202 21 -275 -18 -28 -16 -85 -65 -128 -109
-42 -45 -98 -94 -126 -110 -27 -16 -137 -87 -244 -157 -207 -138 -273 -175
-416 -231 -106 -41 -201 -62 -248 -53 -77 14 -208 198 -311 436 -78 183 -81
160 22 207 78 36 230 89 303 107 27 6 27 4 68 -124 23 -71 44 -136 47 -144 4
-11 -8 -22 -40 -37 -46 -21 -62 -49 -28 -49 35 0 298 70 435 115 257 85 362
133 522 238 116 76 257 141 365 167 86 21 211 25 261 9z m1094 -218 c164 -68
244 -135 304 -258 36 -75 47 -105 65 -178 18 -71 127 -678 122 -681 0 -1 -44
-12 -96 -24 -52 -13 -125 -33 -162 -46 l-66 -22 4 31 c2 18 11 84 19 147 9 63
19 197 22 297 6 166 5 183 -11 189 -9 4 -19 4 -22 1 -3 -3 -12 -72 -20 -154
-8 -81 -18 -182 -24 -223 -5 -41 -17 -136 -26 -210 -8 -74 -29 -225 -46 -335
-27 -175 -32 -235 -37 -485 l-6 -284 -66 -28 c-36 -15 -124 -40 -195 -55 -120
-25 -145 -27 -369 -27 -272 0 -375 13 -649 84 -216 56 -198 49 -191 77 24 99
37 247 50 583 7 176 20 277 39 296 16 16 18 22 45 189 34 210 42 287 44 420 2
107 -1 130 -12 130 -19 0 -27 -33 -45 -195 -13 -113 -65 -460 -70 -467 -1 -1
-36 8 -77 22 -84 26 -175 41 -327 51 -88 6 -102 9 -97 23 2 9 16 90 29 181 78
523 114 635 250 778 92 97 165 117 317 86 83 -17 93 -17 118 -2 24 13 32 13
52 2 13 -7 41 -13 61 -14 29 0 41 6 54 25 27 42 59 32 166 -48 262 -197 452
-236 585 -123 58 51 92 126 100 223 l6 81 34 -10 c19 -5 77 -27 128 -47z
m-1831 -383 c-25 -70 -44 -167 -99 -491 -36 -217 -48 -310 -41 -316 6 -5 24
-13 40 -17 28 -7 28 -7 21 -68 -3 -33 -8 -62 -9 -63 -4 -4 -170 67 -179 76
-18 18 89 727 121 803 7 16 139 117 154 118 4 0 0 -19 -8 -42z m-1996 -123
c-1 -31 -16 35 -16 70 0 25 2 24 9 -10 4 -22 8 -49 7 -60z m4302 -879 c11 -54
28 -111 37 -126 10 -16 68 -71 128 -124 61 -53 160 -141 220 -196 119 -108
231 -193 309 -234 47 -25 56 -26 195 -25 172 2 249 -11 349 -58 54 -25 79 -44
99 -74 14 -22 23 -42 20 -46 -4 -3 -32 14 -64 38 -47 36 -66 44 -103 45 -25 1
-70 7 -101 14 -69 17 -89 10 -89 -29 0 -45 -44 -65 -121 -57 -38 5 -60 3 -64
-5 -11 -17 17 -39 58 -46 60 -9 105 5 148 48 32 32 44 38 65 33 18 -5 22 -10
15 -17 -6 -6 -11 -17 -11 -24 0 -26 31 -25 71 2 l40 28 84 -57 c86 -59 135
-106 135 -132 0 -21 -5 -18 -57 34 -26 26 -77 67 -112 90 -60 39 -66 42 -80
26 -15 -15 -14 -17 3 -27 54 -33 169 -132 186 -160 32 -52 4 -44 -59 16 -83
79 -210 160 -227 146 -25 -21 -15 -34 66 -88 82 -55 160 -123 160 -141 0 -23
-39 -8 -63 24 -30 38 -219 141 -243 132 -8 -3 -14 -14 -14 -25 0 -14 13 -24
48 -35 80 -27 195 -106 153 -106 -5 0 -28 7 -52 15 -24 9 -99 31 -166 50 -165
47 -216 71 -298 143 -81 70 -97 80 -400 242 -263 140 -385 219 -470 305 -51
51 -64 72 -87 140 -45 134 -51 178 -36 280 l13 89 50 19 c28 10 91 29 140 41
l90 22 8 -45 c4 -25 17 -90 27 -145z m-2102 148 c87 -15 192 -50 192 -63 0
-20 -51 -308 -70 -395 -37 -168 -100 -312 -235 -536 l-69 -114 -7 -105 c-8
-117 -12 -134 -59 -235 -22 -49 -33 -90 -37 -140 -3 -39 -9 -75 -14 -80 -23
-25 -32 162 -11 236 11 40 -4 66 -31 55 -34 -13 -46 -213 -21 -345 6 -30 4
-33 -12 -30 -11 1 -28 21 -39 43 -17 34 -21 64 -23 193 -3 137 -2 152 13 152
32 0 85 32 104 64 18 28 40 136 29 136 -3 0 -22 -25 -41 -55 -40 -60 -71 -84
-119 -94 -26 -5 -34 -13 -41 -41 -14 -54 -2 -297 17 -349 19 -53 19 -51 1 -51
-42 0 -75 112 -84 290 -6 106 -8 115 -26 115 -19 0 -20 -7 -20 -110 0 -60 4
-136 8 -167 11 -73 -5 -77 -36 -10 -19 41 -22 64 -22 177 0 169 12 199 130
311 96 90 96 90 130 319 23 145 40 215 77 300 16 39 34 84 39 100 12 38 46
266 55 365 3 41 8 78 10 82 5 9 111 0 212 -18z m1795 -542 c61 -87 271 -232
560 -387 102 -54 185 -101 183 -102 -1 -2 -47 2 -102 8 -54 6 -235 11 -401 11
l-301 0 -7 35 c-9 48 -8 406 1 490 l7 67 16 -41 c9 -22 29 -58 44 -81z m-1667
-256 c-14 -85 -26 -164 -26 -174 0 -15 -13 -25 -47 -38 -27 -9 -63 -23 -80
-30 -18 -7 -33 -10 -33 -7 0 3 27 52 59 107 56 97 140 278 142 307 0 10 2 10
5 2 3 -7 -6 -82 -20 -167z m179 -271 c196 -59 401 -96 615 -110 196 -14 507
28 687 93 49 17 87 25 95 21 7 -5 126 -9 263 -9 249 0 640 -27 713 -49 19 -6
52 -27 74 -47 53 -48 143 -89 259 -118 90 -23 94 -25 114 -62 30 -59 29 -229
-3 -298 -49 -107 -128 -176 -277 -240 -98 -42 -268 -92 -382 -112 l-85 -15
-39 26 c-65 46 -103 54 -255 55 -163 0 -184 5 -317 82 -81 47 -98 53 -159 56
-62 4 -76 1 -134 -28 l-66 -32 -70 18 c-78 21 -105 35 -94 53 9 14 35 25 235
102 86 33 245 108 361 169 246 130 331 168 465 204 162 44 180 50 180 61 0 18
-103 16 -189 -4 -123 -29 -253 -84 -496 -208 -118 -60 -269 -129 -335 -153
-66 -23 -155 -57 -197 -75 -74 -31 -78 -32 -90 -14 -7 11 -75 43 -155 73 -78
30 -243 106 -367 170 -124 63 -263 127 -308 141 -117 37 -305 67 -394 63 l-75
-3 3 55 3 54 117 47 c65 26 128 55 140 63 13 9 30 14 38 10 8 -3 65 -20 125
-39z m-315 -244 c36 -6 105 -15 153 -21 124 -15 220 -49 387 -135 233 -121
347 -176 480 -230 l125 -51 30 -54 c29 -53 30 -60 30 -180 0 -112 -2 -130 -24
-174 -39 -79 -39 -79 -387 -51 -345 28 -528 48 -774 85 -155 24 -355 81 -440
126 -108 57 -172 134 -187 228 -5 32 -3 36 17 36 14 0 35 -14 54 -36 26 -30
38 -36 66 -35 19 0 55 1 79 1 54 0 91 22 91 55 0 18 5 25 18 25 36 0 56 37 62
113 5 55 16 94 48 163 23 50 45 105 48 123 6 28 10 31 33 27 14 -3 55 -10 91
-15z m1762 -603 c132 -79 150 -83 305 -81 151 3 201 -8 260 -55 21 -18 60 -38
86 -46 94 -28 150 -83 128 -125 -15 -27 -50 -27 -154 1 -103 28 -311 30 -457
4 -190 -34 -371 -32 -616 5 l-71 11 18 71 c12 43 19 105 19 158 l0 88 39 -14
c22 -7 60 -17 86 -20 39 -6 50 -4 68 13 38 36 88 53 144 49 41 -3 70 -15 145
-59z m-1347 -323 c158 -18 251 -32 218 -34 -12 0 -105 -30 -206 -65 -101 -35
-201 -66 -223 -70 l-39 -8 34 36 c19 20 32 39 28 42 -3 4 -31 -8 -61 -25 -62
-34 -97 -39 -116 -15 -24 28 0 66 75 116 62 42 75 47 110 43 22 -3 103 -12
180 -20z"/>
<path d="M2922 6289 c-54 -16 -26 -29 59 -29 48 0 94 -6 116 -15 47 -20 53
-19 53 6 0 41 -136 64 -228 38z"/>
<path d="M2960 6162 c0 -20 44 -42 82 -42 68 0 38 33 -41 46 -27 4 -41 3 -41
-4z"/>
<path d="M4375 5433 c-31 -8 -75 -43 -75 -59 0 -17 -2 -17 50 1 51 18 128 19
181 3 51 -15 60 -4 26 29 -23 24 -36 28 -94 30 -38 1 -77 -1 -88 -4z"/>
<path d="M4350 5257 c0 -23 24 -37 77 -44 54 -6 93 8 93 33 0 11 -12 14 -52
12 -29 -2 -68 1 -85 5 -26 7 -33 5 -33 -6z"/>
<path d="M4470 4855 c0 -36 131 -59 195 -35 44 17 24 35 -41 37 -32 0 -80 4
-106 7 -40 6 -48 4 -48 -9z"/>
<path d="M5590 940 c0 -5 12 -10 28 -10 21 0 24 2 12 10 -20 13 -40 13 -40 0z"/>
<path d="M3970 6851 l-75 -6 137 -12 c143 -13 443 -74 488 -99 23 -14 21 -14
-35 -9 -33 3 -82 10 -110 15 -120 23 -321 40 -460 38 l-150 -1 185 -8 c102 -4
194 -9 205 -12 11 -3 33 -8 48 -12 15 -3 26 -9 23 -13 -3 -5 23 -14 57 -21 90
-18 256 -68 377 -113 339 -127 603 -298 860 -557 445 -447 684 -971 731 -1603
29 -380 -44 -812 -197 -1171 -52 -121 -105 -215 -215 -378 -55 -80 -99 -150
-99 -156 0 -18 120 -123 141 -123 52 0 225 255 347 510 110 229 190 482 225
715 9 55 19 118 22 140 14 88 22 376 14 475 -30 367 -113 675 -268 995 -131
272 -292 497 -515 721 -285 285 -612 493 -941 597 -84 26 -227 59 -233 52 -2
-1 32 -14 75 -28 130 -42 433 -184 433 -202 0 -3 -30 10 -67 29 -200 102 -557
201 -798 223 l-90 8 75 6 75 5 -95 0 c-52 0 -129 -2 -170 -5z"/>
<path d="M4278 6843 c12 -2 32 -2 45 0 12 2 2 4 -23 4 -25 0 -35 -2 -22 -4z"/>
<path d="M4153 6733 c9 -2 25 -2 35 0 9 3 1 5 -18 5 -19 0 -27 -2 -17 -5z"/>
<path d="M1388 1912 c-52 -57 -128 -190 -128 -225 0 -23 -6 -22 -50 13 -59 47
-145 82 -203 84 -46 1 -51 -1 -58 -24 -12 -41 -10 -151 4 -215 l13 -60 -103 3
c-129 5 -153 0 -153 -34 0 -28 28 -88 73 -154 103 -152 210 -232 375 -282 53
-16 103 -21 242 -23 285 -6 405 15 540 95 113 67 241 218 281 333 19 55 2 68
-97 70 -43 1 -96 -2 -118 -6 -32 -7 -38 -6 -33 7 13 34 28 182 21 220 -12 72
-19 79 -78 73 -60 -6 -137 -40 -196 -87 -40 -32 -41 -32 -47 -11 -27 104 -159
281 -208 281 -15 0 -42 -21 -77 -58z m131 -75 c97 -128 139 -306 107 -457 -18
-82 -66 -192 -116 -259 l-32 -43 -40 38 c-84 82 -127 190 -135 339 -6 118 10
203 57 295 30 59 94 140 111 140 5 0 26 -24 48 -53z m-407 -155 c26 -14 63
-40 81 -59 34 -33 34 -35 40 -141 3 -59 12 -127 21 -151 9 -24 16 -46 16 -48
0 -2 -30 22 -67 55 -38 32 -88 72 -113 88 -39 26 -47 37 -62 89 -9 33 -17 93
-17 133 l-1 72 28 -6 c15 -4 48 -18 74 -32z m815 -44 c-3 -46 -13 -106 -22
-135 -13 -44 -22 -55 -68 -84 -28 -19 -78 -58 -109 -88 -32 -30 -58 -51 -58
-48 0 3 7 32 15 64 8 31 15 99 15 149 l0 92 48 43 c49 43 133 89 166 89 18 0
19 -6 13 -82z m-968 -227 c98 -30 148 -66 297 -213 l141 -138 -62 0 c-137 0
-293 62 -397 158 -55 51 -148 177 -148 201 0 18 102 13 169 -8z m1191 13 c0
-24 -76 -131 -135 -190 -107 -107 -269 -174 -419 -174 l-61 0 140 139 c149
147 202 184 299 212 59 17 176 25 176 13z"/>
<path d="M1589 788 c-61 -30 -100 -43 -142 -46 -46 -4 -57 -8 -55 -20 4 -21
54 -34 105 -28 22 3 75 21 117 41 93 43 143 45 223 9 92 -41 161 -43 268 -5
105 36 158 39 242 10 35 -11 79 -19 103 -17 l41 3 -86 45 c-73 37 -98 45 -157
48 -59 4 -81 0 -142 -24 -94 -38 -158 -38 -249 -1 -102 41 -162 38 -268 -15z"/>
<path d="M2095 599 l-100 -29 -87 25 c-100 29 -144 31 -194 10 -50 -21 -40
-41 19 -37 32 3 73 -5 129 -24 104 -34 168 -34 277 0 102 32 149 33 248 1 109
-35 180 -33 261 5 37 17 62 35 62 45 0 26 -24 27 -80 5 -71 -28 -139 -27 -227
4 -98 35 -177 34 -308 -5z"/>
</g>
</svg>
