<?xml version="1.0" standalone="no"?>
<!DOCTYPE svg PUBLIC "-//W3C//DTD SVG 20010904//EN"
 "http://www.w3.org/TR/2001/REC-SVG-20010904/DTD/svg10.dtd">
<svg version="1.0" xmlns="http://www.w3.org/2000/svg"
 width="735.000000pt" height="735.000000pt" viewBox="0 0 735.000000 735.000000"
 preserveAspectRatio="xMidYMid meet">

<g transform="translate(0.000000,735.000000) scale(0.100000,-0.100000)"
fill="#000000" stroke="none">
<path d="M2905 6869 c-131 -28 -221 -76 -308 -163 -121 -122 -176 -255 -177
-427 0 -58 -4 -78 -15 -82 -24 -10 -57 -87 -62 -146 -9 -98 27 -268 70 -333
12 -18 39 -41 59 -51 34 -17 37 -22 44 -74 8 -68 -12 -246 -37 -330 -27 -86
-60 -112 -198 -157 -61 -20 -128 -44 -149 -54 -20 -11 -68 -30 -107 -42 -174
-57 -372 -165 -494 -268 -68 -58 -135 -147 -174 -232 -89 -195 -146 -639 -147
-1147 0 -152 3 -184 16 -197 18 -19 20 -19 44 -6 17 9 20 4 28 -43 6 -28 27
-141 47 -250 21 -109 35 -200 32 -203 -9 -10 -118 169 -188 308 -135 268 -228
591 -259 892 -14 138 -14 432 0 556 27 247 89 490 187 740 91 230 192 412 337
603 50 66 99 132 110 146 34 49 -64 -64 -156 -176 -50 -62 -93 -113 -95 -113
-8 0 78 118 162 222 120 149 359 378 550 526 57 44 -120 -57 -210 -120 -108
-75 -326 -285 -429 -412 -90 -111 -186 -245 -250 -348 -26 -43 -50 -78 -52
-78 -11 0 104 189 197 325 139 204 332 416 464 510 64 46 91 74 38 40 -462
-297 -860 -904 -1002 -1528 -132 -579 -73 -1226 162 -1756 186 -420 542 -840
924 -1092 396 -261 870 -404 1283 -386 129 5 473 52 500 68 9 5 -64 9 -183 9
-309 0 -443 20 -744 111 -275 83 -515 189 -688 304 -123 82 -289 219 -401 331
-93 92 -104 107 -132 181 -49 130 -120 449 -138 625 l-7 66 41 21 c76 39 212
72 317 78 94 5 224 -8 252 -25 9 -6 43 -347 43 -435 0 -12 -8 -13 -44 -5 -68
14 -121 7 -121 -16 0 -21 17 -28 175 -66 130 -31 794 -239 946 -295 l41 -16 5
-132 c8 -191 38 -262 156 -360 134 -112 296 -203 515 -292 107 -44 118 -50
112 -69 -4 -12 -9 -38 -12 -58 -4 -32 0 -42 31 -74 20 -20 36 -45 36 -54 0 -9
11 -27 25 -40 20 -19 31 -22 63 -16 30 4 43 2 53 -10 19 -23 65 -44 97 -44 31
0 142 -55 155 -77 5 -8 50 -65 101 -126 50 -62 112 -139 138 -173 31 -40 62
-68 95 -85 26 -13 69 -43 95 -67 45 -40 80 -53 93 -33 3 5 21 7 40 4 41 -7 70
13 92 64 10 25 20 33 38 33 14 0 35 10 46 21 20 20 21 29 16 113 -9 148 -100
365 -192 459 -26 26 -46 49 -44 50 2 2 37 23 78 47 65 37 90 46 189 62 276 45
661 155 852 245 148 69 209 141 247 290 15 57 17 111 16 348 l-2 279 58 106
c165 297 256 590 303 970 17 135 16 514 0 650 -53 427 -216 853 -456 1189 -82
115 -257 321 -337 397 -94 89 -259 220 -371 294 -305 202 -692 348 -1075 405
-136 20 -156 18 -58 -6 367 -89 665 -226 960 -439 147 -107 254 -201 401 -352
357 -368 588 -801 688 -1290 39 -188 48 -286 49 -498 0 -217 -12 -345 -49
-528 -25 -124 -89 -350 -103 -365 -4 -4 -13 37 -20 90 -46 367 -140 633 -274
779 -95 103 -271 207 -389 229 -32 6 -39 13 -61 63 -32 72 -52 150 -71 282
-67 458 -104 643 -168 840 -52 161 -82 227 -154 336 -77 118 -179 218 -274
269 -72 38 -79 40 -177 42 -57 1 -111 7 -121 12 -66 35 -221 19 -333 -35 -78
-37 -235 -171 -260 -221 -8 -16 -31 -57 -51 -93 -48 -85 -92 -220 -113 -345
-13 -79 -16 -153 -13 -343 2 -133 1 -242 -1 -242 -2 0 -63 29 -135 65 -89 45
-148 67 -183 72 -56 6 -75 26 -42 43 34 18 175 204 225 297 27 48 64 133 82
187 30 88 34 110 33 197 -1 76 5 123 26 206 23 94 27 127 26 250 -2 248 -38
343 -179 471 -78 71 -163 117 -243 132 -87 16 -275 11 -376 -11z m-30 -340
c79 -37 100 -43 194 -50 147 -11 270 4 441 52 18 5 71 -91 101 -184 19 -58 21
-82 16 -160 -4 -51 -16 -130 -27 -177 -17 -66 -20 -102 -15 -160 8 -93 -15
-187 -73 -310 -71 -148 -183 -301 -263 -360 -108 -78 -307 -33 -455 103 -116
106 -190 229 -220 365 -14 63 -19 72 -39 72 -40 0 -73 37 -96 108 -39 125 -36
277 6 312 23 19 61 4 75 -30 7 -17 22 -36 32 -41 30 -16 79 37 137 151 58 113
78 176 87 276 4 41 8 74 9 74 1 0 42 -19 90 -41z m1609 -578 c21 -21 59 -49
84 -62 94 -49 248 -219 327 -361 43 -79 50 -86 64 -59 52 96 96 50 96 -99 0
-96 -20 -163 -60 -200 l-25 -23 0 22 c0 12 -7 24 -15 27 -25 10 -45 -16 -45
-57 0 -123 -161 -378 -295 -467 -68 -45 -149 -56 -228 -32 -127 39 -277 163
-355 293 -39 64 -94 272 -111 417 -12 96 -5 216 20 336 11 58 61 144 83 144 8
0 75 31 148 69 73 38 155 77 181 87 38 13 53 26 65 52 l17 35 6 -42 c4 -30 16
-52 43 -80z m-1842 -591 c134 -192 344 -305 521 -280 73 11 77 8 77 -71 0 -50
3 -57 26 -68 24 -11 26 -9 41 29 18 45 33 52 33 16 0 -59 -40 -152 -89 -207
-78 -87 -125 -104 -286 -103 -114 0 -139 3 -203 26 -151 54 -268 150 -348 284
l-41 69 26 14 c92 50 138 112 162 224 10 45 19 98 19 117 0 39 0 39 62 -50z
m-319 -373 c137 -233 343 -366 607 -392 80 -8 191 13 269 52 107 52 184 159
198 273 5 41 9 50 22 45 9 -4 63 -22 121 -42 58 -19 111 -38 119 -42 10 -7 13
-53 12 -232 -1 -123 -4 -255 -7 -294 l-6 -70 -70 -40 c-166 -94 -303 -276
-382 -507 -37 -109 -102 -380 -127 -533 -21 -124 -21 -133 -5 -166 16 -34 16
-43 -4 -170 -12 -74 -28 -179 -36 -233 -8 -55 -16 -101 -18 -104 -3 -2 -31 5
-63 16 -479 168 -599 209 -722 242 -79 22 -145 41 -146 43 -1 1 -8 94 -14 206
l-12 203 22 21 c22 20 22 22 16 256 -9 355 -39 577 -97 707 -20 47 -37 61 -53
45 -8 -8 -5 -36 11 -104 36 -146 51 -266 62 -497 5 -118 12 -239 16 -269 6
-52 5 -54 -18 -48 -133 30 -176 37 -254 37 -150 0 -333 -44 -441 -106 l-43
-25 0 119 c0 191 19 514 41 681 69 540 214 702 823 917 83 29 152 53 153 53 0
1 12 -18 26 -42z m2556 -214 c2 -219 104 -383 239 -383 22 0 43 -4 46 -8 7
-12 -88 -135 -146 -187 -65 -59 -159 -111 -267 -148 -74 -26 -105 -31 -217
-35 -116 -4 -140 -2 -200 18 -38 12 -85 31 -104 42 -45 27 -120 98 -120 114 0
7 25 61 55 120 30 59 58 123 61 142 8 40 -9 127 -37 191 l-19 43 23 -16 c154
-109 294 -134 419 -73 58 29 166 131 225 213 21 29 39 53 39 54 1 0 2 -39 3
-87z m445 -408 c239 -56 416 -155 516 -289 119 -162 207 -478 236 -846 l6 -85
-153 -1 c-133 -1 -166 -5 -239 -26 -47 -14 -93 -28 -102 -33 -17 -7 -18 5 -20
151 -2 88 -2 221 0 297 3 128 2 138 -14 135 -36 -7 -45 -78 -54 -413 -8 -285
-27 -513 -55 -655 -3 -14 -12 -86 -20 -160 -18 -159 -23 -181 -39 -178 -7 2
-108 -45 -226 -104 -309 -154 -412 -178 -625 -143 -129 21 -249 19 -303 -5
l-42 -19 -63 36 c-133 77 -306 184 -317 197 -6 8 -16 43 -21 78 -24 140 -50
272 -90 458 -42 194 -43 196 -43 410 -1 118 3 274 8 346 9 142 4 193 -18 175
-29 -24 -66 -296 -66 -483 0 -70 -4 -128 -8 -128 -5 0 -35 9 -67 20 -77 26
-223 44 -302 35 -76 -8 -73 -22 -33 175 75 374 173 612 307 748 57 58 165 123
180 109 3 -3 9 -39 13 -79 22 -195 103 -361 214 -437 45 -31 141 -59 154 -46
4 4 1 10 -5 12 -30 11 -10 19 25 10 44 -11 122 6 122 27 0 8 -13 45 -29 82
-48 114 -98 344 -74 344 5 0 25 -12 44 -26 207 -155 562 -153 829 6 92 54 196
154 255 244 27 42 50 76 52 76 1 0 31 -7 67 -15z m707 -1292 c21 -21 55 -617
44 -763 -18 -243 -78 -342 -250 -414 -231 -97 -579 -192 -828 -225 -78 -11
-113 -24 -199 -75 -26 -15 -136 -58 -245 -96 -109 -37 -231 -82 -272 -99 -113
-48 -129 -41 -58 28 23 23 80 67 127 99 151 100 185 132 144 132 -32 0 -216
-106 -292 -167 -42 -35 -91 -70 -108 -78 -35 -17 -75 -10 -67 11 10 27 247
235 315 277 37 23 68 46 68 51 0 5 -16 6 -35 3 -47 -8 -183 -99 -270 -181 -95
-89 -189 -154 -193 -132 -2 9 6 31 17 49 25 41 216 227 300 292 69 53 84 75
54 75 -34 0 -195 -119 -298 -219 -55 -54 -110 -103 -122 -109 -18 -10 -22 -8
-26 10 -8 27 -8 27 92 147 92 111 176 180 294 241 91 46 104 47 277 20 185
-29 285 -27 390 9 82 29 354 152 528 240 105 53 172 78 257 96 37 7 72 18 78
24 20 20 -6 31 -77 31 l-74 0 -7 168 c-7 173 -20 353 -31 433 l-6 46 59 21
c164 59 382 88 414 55z m-2680 -13 c37 -5 103 -21 148 -35 85 -27 82 -24 95
-101 5 -35 -10 -426 -20 -495 l-6 -46 -46 13 c-50 16 -189 19 -211 5 -23 -15
-3 -29 57 -41 111 -22 129 -31 337 -160 116 -72 254 -156 308 -187 53 -31 97
-60 97 -64 0 -4 -13 -17 -30 -29 -80 -57 -142 -119 -220 -217 l-19 -24 -128
57 c-452 200 -591 315 -626 518 -14 81 5 360 33 493 10 48 29 138 41 200 l22
112 36 4 c20 2 43 4 51 5 8 1 45 -3 81 -8z m2174 -697 c-3 -19 -15 -38 -27
-44 -20 -11 -21 -10 -15 27 4 22 12 86 19 144 l13 105 8 -100 c4 -55 5 -115 2
-132z m-1830 42 c9 -44 18 -91 22 -104 l6 -23 -36 23 c-44 29 -50 58 -37 159
5 41 10 84 11 95 1 20 7 -6 34 -150z m1035 -979 c101 -74 232 -387 206 -492
-11 -42 -23 -20 -75 134 -64 191 -158 345 -201 330 -6 -2 11 -37 36 -78 89
-143 144 -309 144 -436 0 -40 -4 -75 -9 -78 -8 -6 -51 81 -51 104 0 30 -67
223 -101 291 -36 73 -100 152 -106 132 -2 -5 24 -66 57 -136 33 -70 71 -160
84 -200 27 -82 41 -200 22 -194 -20 7 -65 83 -115 196 -59 132 -168 291 -201
291 -15 0 -12 -36 4 -49 23 -20 154 -225 182 -285 47 -102 -2 -91 -77 17 -24
34 -65 88 -91 120 -27 32 -63 82 -82 111 -19 29 -48 63 -65 75 -17 12 -31 26
-31 30 0 13 190 88 281 111 46 12 90 26 99 31 25 15 43 10 90 -25z"/>
<path d="M2897 6180 c-32 -10 -57 -28 -57 -41 0 -5 33 -9 73 -9 39 0 100 -6
135 -14 69 -14 79 -6 40 32 -43 40 -121 53 -191 32z"/>
<path d="M3351 6114 c-37 -31 -42 -59 -9 -48 12 4 71 7 131 6 91 0 107 2 103
15 -3 8 -6 16 -6 19 0 15 -69 34 -124 34 -55 0 -69 -4 -95 -26z"/>
<path d="M3280 6026 c-24 -53 -40 -155 -40 -257 0 -86 -2 -89 -73 -89 -77 0
-87 -29 -20 -57 56 -23 116 -2 146 52 10 19 20 395 10 395 -2 0 -13 -20 -23
-44z"/>
<path d="M2867 5993 c-15 -14 -5 -33 25 -49 38 -20 122 -15 145 9 14 14 13 16
-3 25 -24 12 -158 24 -167 15z"/>
<path d="M3377 5933 c-14 -13 -6 -24 28 -39 67 -28 154 -7 155 39 0 9 -174 10
-183 0z"/>
<path d="M2914 5538 c-11 -17 49 -68 104 -88 77 -29 197 -29 257 0 73 36 59
45 -73 46 -93 1 -134 7 -200 26 -48 15 -85 21 -88 16z"/>
<path d="M4516 5660 c-37 -12 -86 -58 -86 -82 0 -23 -2 -23 62 7 59 27 174 35
196 13 16 -16 29 -1 16 20 -23 37 -129 61 -188 42z"/>
<path d="M4057 5596 c-50 -18 -77 -44 -77 -73 0 -23 0 -23 27 -6 32 21 174 25
210 5 27 -15 38 -1 23 29 -13 24 -84 59 -120 58 -14 0 -42 -6 -63 -13z"/>
<path d="M4271 5404 c0 -54 -2 -131 -6 -170 -8 -82 8 -128 53 -145 51 -20 162
15 135 42 -5 5 -36 13 -67 16 l-56 6 0 120 c0 127 -11 186 -42 214 -18 16 -19
14 -17 -83z"/>
<path d="M4513 5459 c-51 -15 -41 -36 22 -49 46 -10 60 -9 90 6 42 19 44 31 9
44 -31 12 -78 11 -121 -1z"/>
<path d="M4082 5390 c-74 -18 -65 -50 15 -57 73 -7 160 35 106 51 -40 11 -90
14 -121 6z"/>
<path d="M4505 4992 c-64 -20 -101 -25 -182 -25 -79 0 -103 -3 -103 -13 0 -40
146 -66 241 -44 83 19 159 69 159 104 0 10 -34 4 -115 -22z"/>
<path d="M1612 1776 c-48 -51 -142 -218 -142 -252 0 -27 -21 -23 -70 12 -55
40 -136 74 -175 74 -22 0 -27 -8 -46 -70 -15 -49 -20 -89 -17 -135 3 -62 2
-66 -17 -60 -46 13 -158 35 -179 35 -63 0 -72 -45 -33 -160 121 -345 455 -549
836 -510 135 14 177 26 281 78 155 76 278 216 349 396 68 169 29 207 -157 153
l-80 -23 4 70 c4 51 0 90 -13 136 -17 59 -21 65 -43 62 -50 -6 -122 -35 -172
-68 -28 -19 -54 -31 -58 -27 -3 4 -19 40 -34 80 -33 86 -88 174 -143 226 l-39
38 -52 -55z m148 -181 c80 -160 105 -347 66 -495 -18 -71 -79 -191 -128 -253
l-32 -40 -29 34 c-45 55 -114 201 -132 285 -21 90 -16 234 9 329 21 77 85 210
121 254 l29 33 28 -33 c16 -19 46 -70 68 -114z m-440 -85 c19 -10 52 -33 73
-52 l39 -33 1 -138 c1 -75 1 -137 -1 -137 -1 0 -31 24 -67 54 -35 30 -76 63
-92 73 -15 9 -31 22 -35 28 -9 12 -10 161 -2 204 7 35 16 35 84 1z m774 -16
c8 -20 6 -162 -2 -191 -4 -11 -34 -41 -67 -65 -33 -25 -75 -59 -94 -76 -18
-18 -34 -32 -36 -32 -1 0 2 26 7 58 6 31 7 92 4 135 l-5 78 44 32 c44 31 124
76 136 77 4 0 10 -7 13 -16z m-984 -215 c141 -46 249 -141 375 -328 47 -69 92
-136 101 -148 16 -22 16 -23 -13 -23 -51 0 -181 38 -246 72 -41 21 -94 64
-157 127 -78 79 -103 111 -138 181 -23 47 -44 99 -48 117 l-6 32 38 -6 c22 -3
64 -14 94 -24z m1246 -16 c-4 -16 -27 -71 -53 -123 -39 -80 -59 -108 -132
-180 -99 -98 -157 -133 -268 -159 -89 -22 -173 -32 -173 -21 0 4 15 27 33 51
18 24 61 85 96 136 81 119 178 211 273 257 73 36 162 64 207 65 20 1 22 -2 17
-26z"/>
<path d="M2697 826 c-77 -26 -92 -37 -83 -61 7 -20 32 -18 139 10 l67 18 78
-27 c187 -66 217 -67 352 -21 90 32 135 29 246 -16 122 -49 234 -49 234 -1 0
16 -10 20 -68 25 -43 3 -101 18 -153 38 -104 41 -179 44 -288 10 -91 -29 -159
-25 -281 18 -102 37 -153 38 -243 7z"/>
<path d="M2245 605 c-35 -14 -82 -24 -112 -24 -52 -1 -67 -8 -55 -27 26 -40
114 -44 190 -9 75 35 125 33 230 -11 104 -43 146 -42 286 7 l89 31 96 -31
c123 -40 211 -41 226 -3 8 21 -12 32 -64 32 -24 0 -86 14 -138 30 -115 37
-161 38 -233 4 -88 -41 -152 -43 -255 -5 -106 38 -174 40 -260 6z"/>
</g>
</svg>
